name C:\Users\Nicos\Documents\OpenSimProjects\SprintingProject\Study1\PredictiveResults\IC_pred_Sprinting_optimum_27-October-2023__18-13-56___HTD_Plus_2_p02_maxVel_01.mot
datacolumns 38
datarows 6
range 0.16042080 0.16524525
endheader
                time	/jointset/ground_pelvis/pelvis_tilt/value	/jointset/ground_pelvis/pelvis_list/value	/jointset/ground_pelvis/pelvis_rotation/value	/jointset/ground_pelvis/pelvis_tx/value	/jointset/ground_pelvis/pelvis_ty/value	/jointset/ground_pelvis/pelvis_tz/value	/jointset/hip_r/hip_flexion_r/value	/jointset/hip_r/hip_adduction_r/value	/jointset/hip_r/hip_rotation_r/value	/jointset/knee_r/knee_angle_r/value	/jointset/ankle_r/ankle_angle_r/value	/jointset/subtalar_r/subtalar_angle_r/value	/jointset/mtp_r/mtp_angle_r/value	/jointset/hip_l/hip_flexion_l/value	/jointset/hip_l/hip_adduction_l/value	/jointset/hip_l/hip_rotation_l/value	/jointset/knee_l/knee_angle_l/value	/jointset/ankle_l/ankle_angle_l/value	/jointset/subtalar_l/subtalar_angle_l/value	/jointset/mtp_l/mtp_angle_l/value	/jointset/back/lumbar_extension/value	/jointset/back/lumbar_bending/value	/jointset/back/lumbar_rotation/value	/jointset/acromial_r/arm_flex_r/value	/jointset/acromial_r/arm_add_r/value	/jointset/acromial_r/arm_rot_r/value	/jointset/elbow_r/elbow_flex_r/value	/jointset/radioulnar_r/pro_sup_r/value	/jointset/radius_hand_r/wrist_flex_r/value	/jointset/radius_hand_r/wrist_dev_r/value	/jointset/acromial_l/arm_flex_l/value	/jointset/acromial_l/arm_add_l/value	/jointset/acromial_l/arm_rot_l/value	/jointset/elbow_l/elbow_flex_l/value	/jointset/radioulnar_l/pro_sup_l/value	/jointset/radius_hand_l/wrist_flex_l/value	/jointset/radius_hand_l/wrist_dev_l/value	
          0.16042080	         -9.66776069	          5.38687365	        -14.52628933	          1.25297585	          0.95873466	          0.30775457	         -3.56281856	        -12.89785764	          6.56246043	        -52.01053629	        -28.32219960	        -13.47833326	         -6.34206519	         83.93728936	         -8.78197514	          3.64419931	       -107.81892013	         -8.93158166	        -22.09897515	         15.66533887	         -9.81480560	         -3.46815866	         11.03493416	         89.94333539	        -13.05371442	         -0.06763573	        127.77765491	         78.64282843	         -7.15317768	          8.07698288	        -74.92337348	        -25.05579633	         -0.04205791	         80.04261877	         42.89496149	        -11.82995970	          7.60429046	
          0.16106842	         -9.69354700	          5.40591191	        -14.51279856	          1.26045255	          0.95891762	          0.30794625	         -3.55674194	        -12.90428772	          6.64347968	        -52.43356617	        -28.46059756	        -13.40058430	         -5.95077709	         84.00687071	         -8.88011121	          3.57236528	       -107.12573526	         -9.18576088	        -22.14653813	         15.66547010	         -9.82607142	         -3.54039344	         11.01932902	         89.90307167	        -12.84201476	         -0.09032220	        128.13683087	         78.65234953	         -7.05218952	          8.05702932	        -74.89232345	        -24.92373869	         -0.00000453	         79.53241519	         42.93390378	        -11.94369043	          7.58620706	
          0.16311464	         -9.76760935	          5.47200624	        -14.46318231	          1.28403555	          0.95953704	          0.30854920	         -3.52811263	        -12.92594815	          6.89227461	        -53.77381658	        -28.87802792	        -13.05551563	         -4.67424664	         84.16268222	         -9.17875076	          3.31895716	       -104.88533131	         -9.99876134	        -22.30607859	         15.66568513	         -9.87547319	         -3.78311636	         10.95979557	         89.71508529	        -12.21382251	         -0.15595141	        129.26881538	         78.68280258	         -6.73309693	          7.99394761	        -74.76873088	        -24.46528659	         -0.00001124	         77.96405622	         43.07697866	        -12.30303616	          7.52778851	
          0.16459763	         -9.81516278	          5.52541592	        -14.42225784	          1.30108992	          0.96002326	          0.30898419	         -3.49734917	        -12.94325025	          7.06445977	        -54.74833456	        -29.14375527	        -12.75056550	         -3.72367611	         84.21553467	         -9.38495199	          3.11090077	       -103.21549806	        -10.59639359	        -22.43134389	         15.66568197	         -9.92274603	         -3.97238471	         10.90999233	         89.51940584	        -11.79881253	         -0.20264673	        130.07951727	         78.70411016	         -6.50184992	          7.94825601	        -74.65831360	        -24.09841927	         -0.12754707	         76.87976198	         43.19952080	        -12.56347034	          7.48539832	
          0.16459763	         -9.81516278	          5.52541592	        -14.42225784	          1.30108992	          0.96002326	          0.30898419	         -3.49734917	        -12.94325025	          7.06445977	        -54.74833456	        -29.14375527	        -12.75056550	         -3.72367611	         84.21553467	         -9.38495199	          3.11090077	       -103.21549806	        -10.59639359	        -22.43134389	         15.66568197	         -9.92274603	         -3.97238471	         10.90999233	         89.51940584	        -11.79881253	         -0.20264673	        130.07951727	         78.70411016	         -6.50184992	          7.94825601	        -74.65831360	        -24.09841927	         -0.12754707	         76.87976198	         43.19952080	        -12.56347034	          7.48539832	
          0.16524525	         -9.83430414	          5.55010588	        -14.40352008	          1.30852812	          0.96024523	          0.30917374	         -3.48128977	        -12.95133034	          7.13719114	        -55.17461297	        -29.24596091	        -12.61273103	         -3.30507352	         84.22272632	         -9.47243356	          3.01380727	       -102.47465810	        -10.85907328	        -22.48855398	         15.66570188	         -9.94627060	         -4.05844044	         10.88727286	         89.41785135	        -11.62851579	         -0.22422802	        130.42912337	         78.71296093	         -6.40086145	          7.92830881	        -74.60533590	        -23.93071853	         -0.21591542	         76.42312757	         43.25809247	        -12.67719964	          7.46676528	
